<?xml version="1.0" standalone="no"?><!DOCTYPE svg PUBLIC "-//W3C//DTD SVG 1.1//EN" "http://www.w3.org/Graphics/SVG/1.1/DTD/svg11.dtd"><svg t="1569489943503" class="icon" viewBox="0 0 1024 1024" version="1.1" xmlns="http://www.w3.org/2000/svg" p-id="7627" xmlns:xlink="http://www.w3.org/1999/xlink" width="128" height="128"><defs><style type="text/css"></style></defs><path d="M393.299091 386.391926a123.612671 122.998701 90 1 0 245.997401 0 123.612671 122.998701 90 1 0-245.997401 0Z" p-id="7628" fill="#e6e6e6"></path><path d="M515.479165 67.741381C272.449286 67.741381 75.364845 264.825822 75.364845 507.855701s197.084441 440.11432 440.11432 440.11432 440.11432-197.084441 440.11432-440.11432S758.509044 67.741381 515.479165 67.741381z m245.690416 664.725092c0 13.609673-10.949136 24.661137-24.558809 24.661138s-24.558809-11.051464-24.558808-24.661138v-0.306985h-0.511642C700.079544 637.915059 622.616968 564.136305 527.04227 559.019886a188.297504 188.297504 0 0 1-21.488957 0c-95.574698 5.116419-173.037274 78.895173-184.498052 173.139602h-0.409313v0.306985c0 13.609673-10.949136 24.661137-24.558809 24.661138s-24.558809-11.051464-24.558809-24.661138v-0.306985-0.102328l-0.204657-1.944239c0-2.865194 0.511642-5.62806 1.330269-8.18627 11.972419-86.876786 68.866993-159.222944 146.431898-192.786649-45.331468-31.210153-75.109024-83.49995-75.109024-142.850405 0-95.574698 77.053263-173.037274 172.218647-173.037274s172.218647 77.462576 172.218647 173.037274c0 59.350455-29.675227 111.640252-75.006695 142.850405 78.383532 33.870691 135.687419 107.444789 146.841211 195.549515 0.306985 1.637254 0.511642 3.274508 0.61397 5.01409 0.102328 0.818627 0.204657 1.534926 0.204657 2.353553l0.102328 0.409313z" p-id="7629" fill="#e6e6e6"></path></svg>