<?xml version="1.0" standalone="no"?><!DOCTYPE svg PUBLIC "-//W3C//DTD SVG 1.1//EN" "http://www.w3.org/Graphics/SVG/1.1/DTD/svg11.dtd"><svg t="1604989755463" class="icon" viewBox="0 0 1024 1024" version="1.1" xmlns="http://www.w3.org/2000/svg" p-id="1147" xmlns:xlink="http://www.w3.org/1999/xlink" width="200" height="200"><defs><style type="text/css"></style></defs><path d="M968.512 359.232l-14.336-16.32c-70.528-80.32-192.96-202.88-272.96-273.088l-16.32-14.336C624.192 19.648 569.856 0 511.936 0 454.208 0 399.872 19.712 359.04 55.488l-16.32 14.336C262.72 140.096 140.224 262.592 69.76 342.912l-14.336 16.32C-18.56 443.456-18.56 580.48 55.424 664.768l14.336 16.32c70.4 80.256 192.832 202.752 272.96 273.088l16.32 14.336c40.768 35.84 95.04 55.488 152.96 55.488 57.856 0 112.192-19.712 152.96-55.488l16.256-14.336 9.472-8.32c25.344-22.144 36.864-32.256 72.448-67.2l8.384-8.32-1.28-1.408a32.064 32.064 0 0 0-10.688-40.704 33.088 33.088 0 0 0-42.368 4.032c-3.392 3.2-50.432 47.36-79.424 72.896l-16.32 14.336c-28.8 25.216-67.648 39.04-109.44 39.04s-80.704-13.888-109.44-39.04l-16.384-14.4c-78.4-68.8-198.144-188.608-266.944-267.072l-14.336-16.32C79.808 593.088 65.92 554.112 65.92 512c0-42.112 13.888-81.088 38.976-109.696l14.336-16.32C188.032 307.52 307.84 187.776 386.24 118.912l16.256-14.336c28.8-25.216 67.648-39.168 109.44-39.168 41.856 0 80.704 13.952 109.44 39.168l16.32 14.336c78.464 68.864 198.208 188.672 267.008 267.008l14.272 16.384c52.288 59.52 52.48 163.968 0.32 219.072l-8.256 8.768c-23.488 24.96-37.76 40.128-52.736 44.608-14.208 4.224-32.192-0.256-66.496-16.64-57.216-27.264-138.24-72.96-166.4-88.96 11.392-22.336 37.504-77.056 49.792-131.84l3.328-14.72H537.984v-17.152h178.88V340.032H537.984v-82.56H472.32v82.56H293.376v65.408h178.88v17.216h-137.6v65.408H582.4c-5.312 16.576-15.168 37.12-22.144 50.56-25.6-9.92-93.312-33.408-162.944-33.408-43.904 0-80.832 11.712-106.88 33.92-25.92 21.952-39.552 52.416-39.552 88.256s13.056 66.496 37.824 88.64c25.344 22.72 61.248 34.688 104.064 34.688 49.408 0 100.608-21.632 148.096-62.464 18.56-16 35.392-33.664 50.432-52.864 26.432 14.528 104 57.024 176.384 95.232 47.168 24.896 80.32 29.824 110.784 16.448 28.992-12.672 54.4-41.6 89.6-81.728l0.512-0.64c73.856-84.16 73.856-221.248-0.128-305.472z m-576.896 323.84c-69.568 0-74.944-42.624-74.944-55.68a54.592 54.592 0 0 1 14.08-35.776c12.736-13.888 32.832-20.928 59.712-20.928 57.792 0 109.76 19.584 133.376 30.08-21.44 24.96-76.544 82.304-132.224 82.304z" p-id="1148"></path></svg>