<?xml version="1.0" standalone="no"?><!DOCTYPE svg PUBLIC "-//W3C//DTD SVG 1.1//EN" "http://www.w3.org/Graphics/SVG/1.1/DTD/svg11.dtd"><svg t="1569489505154" class="icon" viewBox="0 0 1024 1024" version="1.1" xmlns="http://www.w3.org/2000/svg" p-id="2478" xmlns:xlink="http://www.w3.org/1999/xlink" width="128" height="128"><defs><style type="text/css"></style></defs><path d="M7.68 974.848c0 16.384 13.312 29.696 29.696 29.696h948.736c16.384 0 29.696-13.312 29.696-29.696 0-41.472-5.12-83.456-15.36-123.904-4.608-15.872-21.504-24.576-37.376-19.968-14.848 4.608-23.552 19.456-20.48 34.816 5.632 23.04 9.728 47.104 11.776 70.656l0.512 8.192H68.096l0.512-8.192c9.216-110.08 59.392-211.968 140.8-287.744 81.92-75.776 187.904-118.272 299.52-118.784h2.56c141.312 0 256-114.688 256-256s-114.688-256-256-256-256 114.688-256 256c0 81.92 38.4 157.184 105.472 205.824l12.288 8.704-14.336 4.608c-99.84 31.744-189.44 95.744-252.416 180.224-64.512 89.088-98.816 193.024-98.816 301.568z m312.32-699.904c0-105.984 86.016-192 192-192s192 86.016 192 192-86.016 192.512-192 192.512-192-86.528-192-192.512z" p-id="2479" fill="#e6e6e6"></path><path d="M687.616 769.024l-111.104-111.104c-6.144-6.144-14.336-9.216-22.528-9.216-8.192 0-16.384 3.072-22.528 9.216-12.288 12.288-12.288 32.768 0 45.056l133.632 133.632c6.144 6.144 13.824 9.216 22.528 9.216 8.704 0 16.384-3.072 22.528-9.216l283.136-283.136c12.288-12.288 12.288-32.768 0-45.056s-32.768-12.288-45.056 0l-260.608 260.608z" p-id="2480" fill="#e6e6e6"></path></svg>