<?xml version="1.0" standalone="no"?><!DOCTYPE svg PUBLIC "-//W3C//DTD SVG 1.1//EN" "http://www.w3.org/Graphics/SVG/1.1/DTD/svg11.dtd"><svg t="1579057592503" class="icon" viewBox="0 0 1024 1024" version="1.1" xmlns="http://www.w3.org/2000/svg" p-id="6038" xmlns:xlink="http://www.w3.org/1999/xlink" width="128" height="128"><defs><style type="text/css"></style></defs><path d="M136.618667 597.376V221.781333a68.309333 68.309333 0 1 0-136.618667 0v580.437334a68.309333 68.309333 0 1 0 136.618667 0v-68.181334h751.36v68.181334c0 37.802667 30.592 68.394667 68.224 68.394666s68.309333-30.592 68.309333-68.394666V392.490667c0-37.802667-30.592-68.394667-68.309333-68.394667-37.589333 0-68.224 30.634667-68.224 68.394667v204.885333H136.618667z m136.661333-34.133333a85.333333 85.333333 0 1 0-0.042667-170.794667 85.333333 85.333333 0 0 0 0.042667 170.794667z m119.466667-85.461334c0-37.674667 30.592-68.266667 68.352-68.266666h307.242666a68.266667 68.266667 0 1 1 0 136.661333h-307.242666a68.437333 68.437333 0 0 1-68.352-68.394667z" p-id="6039"></path></svg>