<?xml version="1.0" standalone="no"?><!DOCTYPE svg PUBLIC "-//W3C//DTD SVG 1.1//EN" "http://www.w3.org/Graphics/SVG/1.1/DTD/svg11.dtd"><svg t="1604304966530" class="icon" viewBox="0 0 1024 1024" version="1.1" xmlns="http://www.w3.org/2000/svg" p-id="3064" xmlns:xlink="http://www.w3.org/1999/xlink" width="128" height="128"><defs><style type="text/css"></style></defs><path d="M832.1776 191.8224c9.3728 9.3728 9.3728 24.568 0 33.9408l-45.4144 45.4192C907.8096 351.9792 960 471.1344 960 512c0 64-128 320-448 320-93.088 0-169.9296-21.664-232.0976-53.9632l-54.1392 54.1408c-9.3728 9.3728-24.568 9.3728-33.9408 0-9.3728-9.3728-9.3728-24.568 0-33.9408l45.4144-45.4192C116.1904 672.0208 64 552.8656 64 512c0-64 128-320 448-320 93.088 0 169.9296 21.664 232.0976 53.9632l54.1392-54.1408c9.3728-9.3728 24.568-9.3728 33.9408 0z m-80.1024 114.0432l-111.24 111.2416C660.4224 443.656 672 476.4768 672 512c0 88.3648-71.6352 160-160 160-35.5248 0-68.3456-11.5776-94.8944-31.1648l-101.392 101.392a410.816 410.816 0 0 0 10.5664 4.816C381.1104 771.0896 442.9392 784 512 784s130.8896-12.9088 185.72-36.9584c47.664-20.904 89.2784-49.9216 124.3392-84.9824 29.6944-29.696 53.6464-62.7712 70.2704-95.04 6.96-13.5104 12.2944-26.2768 15.7536-37.2864 1.488-4.7312 2.5664-8.952 3.232-12.48 0.488-2.592 0.6848-4.44 0.6848-5.2528s-0.1968-2.6608-0.6864-5.2528c-0.664-3.528-1.744-7.7488-3.2304-12.48-3.4592-11.0096-8.7952-23.776-15.7536-37.2848-16.624-32.2704-40.576-65.3472-70.272-95.04-21.0096-21.0128-44.3744-39.8528-69.984-56.0768zM512 240c-69.0608 0-130.8896 12.9088-185.72 36.9584-47.664 20.904-89.2784 49.9216-124.3392 84.9824-29.6944 29.696-53.6464 62.7712-70.2704 95.04-6.96 13.5104-12.2944 26.2768-15.7536 37.2864-1.488 4.7312-2.5664 8.952-3.232 12.48-0.488 2.592-0.6848 4.44-0.6848 5.2528s0.1968 2.6608 0.6864 5.2528c0.664 3.528 1.744 7.7488 3.2304 12.48 3.4592 11.0096 8.7952 23.776 15.7536 37.2848 16.624 32.2704 40.576 65.3472 70.272 95.04 21.0096 21.0128 44.3744 39.8528 69.984 56.0768l111.2368-111.2416C363.5776 580.344 352 547.5232 352 512c0-88.3648 71.6352-160 160-160 35.5248 0 68.3456 11.5776 94.8944 31.1648l101.392-101.392a410.816 410.816 0 0 0-10.5664-4.816C642.8896 252.9104 581.0608 240 512 240z m94.336 211.6048l-154.7312 154.7328C469.0304 617.5168 489.7584 624 512 624c61.856 0 112-50.144 112-112 0-22.2416-6.4832-42.9696-17.664-60.3952zM512 400c-61.856 0-112 50.144-112 112 0 22.2416 6.4832 42.9696 17.664 60.3952l154.7312-154.7328C554.9696 406.4832 534.2416 400 512 400z" fill="#979797" p-id="3065"></path></svg>