<?xml version="1.0" standalone="no"?><!DOCTYPE svg PUBLIC "-//W3C//DTD SVG 1.1//EN" "http://www.w3.org/Graphics/SVG/1.1/DTD/svg11.dtd"><svg t="1572851838563" class="icon" viewBox="0 0 1024 1024" version="1.1" xmlns="http://www.w3.org/2000/svg" p-id="2049" xmlns:xlink="http://www.w3.org/1999/xlink" width="128" height="128"><defs><style type="text/css"></style></defs><path d="M736 448c53 0 96-43 96-96s-43-96-96-96-96 43-96 96 43 96 96 96z" p-id="2050" fill="#ffffff"></path><path d="M904 128H120c-31.2 0-56 25.4-56 56.6v654.8c0 31.2 24.8 56.6 56 56.6h784c31.2 0 56-25.4 56-56.6V184.6c0-31.2-24.8-56.6-56-56.6zM697.8 523.4c-6-7-15.2-12.4-25.6-12.4-10.2 0-17.4 4.8-25.6 11.4L609.2 554c-7.8 5.6-14 9.4-23 9.4-8.6 0-16.4-3.2-22-8.2-2-1.8-5.6-5.2-8.6-8.2L448 430.6c-8-9.2-20-15-33.4-15-13.4 0-25.8 6.6-33.6 15.6L128 736.4V215.4c2-13.6 12.6-23.4 26.2-23.4h715.4c13.8 0 25 10.2 25.8 24l0.6 520.8-198.2-213.4z" p-id="2051" fill="#ffffff"></path></svg>