<?xml version="1.0" standalone="no"?><!DOCTYPE svg PUBLIC "-//W3C//DTD SVG 1.1//EN" "http://www.w3.org/Graphics/SVG/1.1/DTD/svg11.dtd"><svg t="1579057290902" class="icon" viewBox="0 0 1152 1024" version="1.1" xmlns="http://www.w3.org/2000/svg" p-id="3512" xmlns:xlink="http://www.w3.org/1999/xlink" width="144" height="128"><defs><style type="text/css"></style></defs><path d="M99.328 304.384c-64.192-29.248-64-76.8 0-105.984l355.84-162.304c64.192-29.312 168.448-29.248 232.448 0l355.84 162.304c64.192 29.248 64 76.8 0 105.984l-355.84 162.304c-64.192 29.248-168.448 29.184-232.448 0L99.328 304.384z m24.064 139.008l331.776 151.296c64 29.184 168.256 29.248 232.448 0l331.776-151.296 24.064 11.008c64.192 29.248 64 76.8 0 105.984l-355.84 162.304c-64.192 29.248-168.448 29.184-232.448 0L99.328 560.384c-64.192-29.248-64-76.8 0-105.984l24.064-11.008z m0 256l331.776 151.296c64 29.184 168.256 29.248 232.448 0l331.776-151.296 24.064 11.008c64.192 29.248 64 76.8 0 105.984l-355.84 162.304c-64.192 29.248-168.448 29.184-232.448 0L99.328 816.384c-64.192-29.248-64-76.8 0-105.984l24.064-11.008z" p-id="3513" fill="#ffffff"></path></svg>