<?xml version="1.0" standalone="no"?><!DOCTYPE svg PUBLIC "-//W3C//DTD SVG 1.1//EN" "http://www.w3.org/Graphics/SVG/1.1/DTD/svg11.dtd"><svg t="1569489826731" class="icon" viewBox="0 0 1235 1024" version="1.1" xmlns="http://www.w3.org/2000/svg" p-id="6246" xmlns:xlink="http://www.w3.org/1999/xlink" width="154.375" height="128"><defs><style type="text/css"></style></defs><path d="M1171.610049 695.976014H915.677117a63.983233 63.983233 0 0 0 0 127.966466H1171.610049a63.983233 63.983233 0 0 0 0-127.966466z m0-255.932932H915.677117a63.983233 63.983233 0 1 0 0 127.966466H1171.610049a63.983233 63.983233 0 1 0 0-127.966466zM915.677117 312.09152H1171.610049a63.983233 63.983233 0 0 0 0-127.966465H915.677117a63.983233 63.983233 0 1 0 0 127.966465z m-301.584141-56.098972C614.092976 114.612406 511.001426 0 383.824877 0S153.52697 114.612406 153.52697 255.992548s103.106454 256.007452 230.297907 256.007452 230.268099-114.567694 230.268099-256.007452z m-230.268099 255.992548C171.844089 511.985096 0 655.27296 0 831.990685s171.844089 192.009315 383.824877 192.009315 383.795069-15.29159 383.795069-192.009315-171.858993-320.005589-383.795069-320.005589z" fill="#e6e6e6" p-id="6247"></path></svg>