<?xml version="1.0" standalone="no"?><!DOCTYPE svg PUBLIC "-//W3C//DTD SVG 1.1//EN" "http://www.w3.org/Graphics/SVG/1.1/DTD/svg11.dtd"><svg t="1579057695959" class="icon" viewBox="0 0 1025 1024" version="1.1" xmlns="http://www.w3.org/2000/svg" p-id="6997" xmlns:xlink="http://www.w3.org/1999/xlink" width="128.125" height="128"><defs><style type="text/css"></style></defs><path d="M935.589391 617.61134l0-81.259722 0.583285 1.170662c17.539468-29.523407 25.722848-60.507072 0.880043-61.090357-0.585331 0-1.169639 0-1.464351 0L935.588368 197.571774l34.494629 10.816347c37.706787 17.537422 54.367235 30.983665 53.78395 40.630373-2.045589 10.522658-14.325263 18.999726-31.862685 26.89044l-45.599548 14.615882c6.723122 11.694343 11.111059 23.091928 11.396561 34.198893l0.880043 104.646362c71.327512 37.121456 44.429909 105.811908-21.629623 189.997262L935.589391 617.61134zM935.589391 197.571774l0 278.859126c-23.091928 0.583285-22.505573 27.182083 0 59.920718l0 81.259722c-64.014966-71.613014-94.994538-152.287405-21.336958-188.242292l-0.294712-88.569198c0.294712-21.6286-10.520611-34.199916-24.845874-30.981618l-75.995835 20.459984-0.288572 132.705418-11.403724 9.355065 7.598049 38.874379c109.033275 53.492308 75.125001 203.447599-33.031301 241.153362-22.210861 65.47727-74.243935 123.93466-134.165676 160.473855l0-60.797691c43.554982-33.323966 81.8471-79.508845 88.277556-131.24823 0.874927-11.982916 12.279674-14.904455 29.228695-13.152555 70.741157-38.001499 100.555184-113.121384 26.891464-154.336064l-22.214954 0.583285-6.721075-67.814502-115.461685 24.261567 0-49.983391 125.982296-29.232788 0.877997-83.306334-126.861316 35.662221 0-49.985438L800.545719 286.139949l-158.720931-36.243459 0-47.938825 247.287059 55.536874 40.924061-10.232039-288.211121-91.197048L641.824788 105.495706 935.589391 197.571774 935.589391 197.571774zM641.824788 659.120732c23.677259 0 42.678008-19.292392 42.678008-42.968627 0-23.38664-19.000749-42.676985-42.678008-42.676985L641.824788 659.120732zM392.490092 573.474097c23.675212 0 42.678008 19.291368 42.678008 42.676985 0 23.677259-19.002796 42.968627-42.678008 42.968627L392.490092 573.474097 392.490092 573.474097zM641.824788 105.495706l0 50.569746-126.859269-40.047088-122.475426 38.001499L392.490092 104.618732l96.16827-30.400381c19.584034-6.430456 40.047088-4.968152 61.675688 2.923586L641.824788 105.495706 641.824788 105.495706zM641.824788 201.956641l0 47.938825-129.199571-29.231765c-24.258497-5.260817-12.857842-51.737338 18.999726-43.552935L641.824788 201.956641 641.824788 201.956641zM641.824788 333.493443l0 49.985438L519.934693 417.384086l-127.444601-34.491559 0-49.108464L490.412309 363.30747c16.077164 5.263887 34.782178 4.969175 53.199643-0.291642L641.824788 333.493443 641.824788 333.493443zM641.824788 460.354759l0 49.983391L517.304796 536.644283l-124.814704-26.89044 0-51.154054 127.444601 29.816073L641.824788 460.354759 641.824788 460.354759zM641.824788 573.474097l0 85.645612c-23.675212 0-42.965557-19.292392-42.965557-42.968627C598.858207 592.765465 618.149575 573.474097 641.824788 573.474097L641.824788 573.474097zM641.824788 852.042603l0 60.797691c-39.752376 23.965831-82.721003 38.585807-123.349329 39.170115-40.924061-1.755993-85.354993-16.664541-125.984343-42.09677l0-60.798714c44.429909 35.954887 96.16827 56.127322 128.028908 57.879222C547.702107 906.994146 597.396926 886.241496 641.824788 852.042603zM392.490092 659.120732c-23.676236 0-42.676985-19.292392-42.676985-42.968627 0-23.38664 18.999726-42.676985 42.676985-42.676985L392.490092 659.120732 392.490092 659.120732zM392.490092 104.618732 45.817488 215.109196c-21.339004 6.724145-45.305859 22.215978-45.305859 30.985712 0 8.767688 14.028505 20.167319 27.475771 24.552186l199.643969 65.476247 0 131.829468 12.277628 4.968152-7.600095 39.461757c-106.105596 35.663244-85.643566 208.996988 35.07689 236.475829 20.168342 69.859068 68.690452 125.688607 125.105323 161.055093l0-60.798714c-36.247552-29.228695-68.107167-69.272713-80.382748-118.965485-0.585331-15.489786-8.185426-25.13854-26.891464-23.089881-91.492784-33.323966-90.323145-125.401058-30.693046-152.583141l21.923312-0.293689 7.890714-68.107167 108.153232 23.678282 0-51.154054-118.969579-28.061103 0-80.091106 118.969579 32.44597 0-49.108464-294.349935-87.982844 294.349935-91.78238L392.491116 104.618732z" p-id="6998" fill="#ffffff"></path></svg>