<?xml version="1.0" standalone="no"?><!DOCTYPE svg PUBLIC "-//W3C//DTD SVG 1.1//EN" "http://www.w3.org/Graphics/SVG/1.1/DTD/svg11.dtd"><svg t="1579155564828" class="icon" viewBox="0 0 1024 1024" version="1.1" xmlns="http://www.w3.org/2000/svg" p-id="2189" xmlns:xlink="http://www.w3.org/1999/xlink" width="128" height="128"><defs><style type="text/css"></style></defs><path d="M825.3 736.4l-9.2-51.4c-3.4-13.7-23.7-16.6-23.7-16.6l-2.4-86.7c-134.4-17.8-244.3 55.4-244.3 55.4H485c-130.9-81-243.7-55.4-243.7-55.4l-2.9 86.7c-21.6 2-25.3 20.3-25.3 20.3l-8.9 57.4c4.5 32.4 30.6 29.2 30.6 29.2 1.6 43.3-13 110-13 110 172 13.3 263.2 79 263.2 79h60.8c98.6-68.7 263.8-79 263.8-79-9-18.3-13.4-110-13.4-110 36.2 0 29.1-38.9 29.1-38.9z" fill="#1afa29" p-id="2190"></path><path d="M395.7 492.2c-36.1 12.8-69.5 31.4-99.1 54.5 15.8 1.1 33.3 3 52.2 5.9 16.6 2.3 31.1 5.7 43.1 8.9 52.3 12.6 88.2 31.5 106.7 43h32.8c18.5-11.5 54.4-30.3 106.7-43 12.1-3.2 26.5-6.6 43.1-8.9 18.9-2.8 36.4-4.8 52.2-5.9-29.6-23.1-63-41.6-99.1-54.5 0.2-0.1 0.4-0.3 0.6-0.4-14.4-4.5-29-8-43.6-10.6-5.5-10.5-4.4-20.3-3.6-24.2 55.2-29.1 68-94.5 68-94.5 89.6-92.2 18.5-112.4 18.5-112.4 2-74.6-23.2-117.9-23.2-117.9 29.2-28.2 27-44.3 27-44.3-31.3 0.2-79.4-26.2-79.4-26.2-79.4-24.2-128-2-128-2-122 43.3-107.9 193.5-107.9 193.5-69.6 18.7 15.6 109.4 15.6 109.4 6.1 58.7 56.8 87.3 70 93.8 0.4 3.1 0.9 12.7-4.9 24.2-19 3.1-35.4 7.2-47.7 11.6z" fill="#1afa29" p-id="2191"></path></svg>