<?xml version="1.0" standalone="no"?><!DOCTYPE svg PUBLIC "-//W3C//DTD SVG 1.1//EN" "http://www.w3.org/Graphics/SVG/1.1/DTD/svg11.dtd"><svg t="1578553239198" class="icon" viewBox="0 0 1024 1024" version="1.1" xmlns="http://www.w3.org/2000/svg" p-id="2264" xmlns:xlink="http://www.w3.org/1999/xlink" width="128" height="128"><defs><style type="text/css"></style></defs><path d="M513.365333 1007.616c-274.090667 0-496.981333-223.232-496.981333-496.981333S239.274667 13.653333 513.365333 13.653333 1010.346667 236.544 1010.346667 510.634667s-222.890667 496.981333-496.981334 496.981333z m0.341334-948.565333c-248.832 0-451.242667 202.410667-451.242667 451.242666 0.341333 249.173333 202.069333 450.901333 451.242667 451.242667 248.832 0 451.242667-202.410667 451.242666-451.242667 0-248.832-202.752-451.242667-451.242666-451.242666z" p-id="2265" fill="#ffffff"></path><path d="M422.229333 815.786667c0-8.192-0.341333-15.36 0-22.869334 1.365333-33.450667-12.629333-54.954667-46.421333-57.685333-34.474667-2.730667-69.290667 1.024-103.765333 1.024-44.373333 0.341333-88.746667 0-135.509334 0 3.413333-20.48 0.682667-37.205333 7.509334-44.032s9.898667-2.048 17.408-7.509333c3.413333-2.389333 4.437333-16.725333 5.12-25.941334 1.024-20.821333 4.096-41.642667 6.144-64.170666 6.826667 1.024 12.288 2.389333 18.090666 2.730666 27.648 2.730667 48.469333 0.682667 65.536-30.037333 29.696-54.272 83.285333-81.237333 141.994667-96.938667 12.288-3.413333 25.258667-5.802667 36.522667-11.264 30.378667-14.677333 35.498667-38.570667 14.677333-64.170666-38.229333-47.445333-51.541333-101.376-41.984-161.109334 6.826667-41.984 35.157333-70.997333 77.824-76.458666 20.48-2.730667 42.325333-2.730667 62.805333 0.682666 39.936 6.826667 69.632 41.984 72.704 84.992 4.096 55.978667-6.144 108.202667-44.373333 152.234667-20.138667 23.210667-13.994667 49.493333 13.653333 63.146667 11.264 5.461333 23.893333 8.533333 36.522667 11.946666 68.266667 17.408 123.221333 52.224 157.696 115.712 3.072 5.802667 11.946667 10.922667 18.432 11.605334 15.701333 1.706667 31.402667 0.341333 51.2 0.341333 3.072 24.234667 6.485333 50.517333 9.898667 78.506667 33.109333 5.802667 17.749333 35.498667 29.696 59.733333-40.277333 0.682667-76.458667 2.389333-112.298667 1.706667-27.306667-0.341333-54.272-4.778667-81.578667-6.144-15.701333-0.682667-31.744 0-47.104 2.389333-37.546667 6.144-52.565333 28.330667-47.786666 65.877333 0.682667 4.437333 0.682667 8.874667 1.365333 15.018667-60.757333 0.682667-121.856 0.682667-183.978667 0.682667z m-230.058666-131.413334c41.984-2.730667 79.530667-3.413333 117.077333-7.850666 88.405333-10.922667 137.898667 12.970667 169.642667 83.968h71.68c13.653333-46.762667 44.032-73.728 89.770666-80.554667 27.306667-4.096 55.637333-2.730667 83.285334-2.048 36.864 1.024 73.386667 3.754667 112.64 6.144-2.389333-21.162667-4.437333-38.229333-6.826667-55.296-39.594667-2.730667-77.824-5.12-116.394667-7.850667-23.552-1.706667-46.762667-4.778667-69.973333-5.12-69.632-0.682667-111.274667 35.84-128.682667 113.322667-4.437333-13.312-8.192-25.6-12.970666-37.205333-20.48-50.176-58.026667-77.482667-111.957334-75.776-63.146667 2.048-126.293333 8.192-192.170666 12.970666-1.365333 16.725333-3.072 33.450667-5.12 55.296z" p-id="2266" fill="#ffffff"></path></svg>